<mxfile host="app.diagrams.net" modified="2022-05-20T17:08:16.451Z" agent="5.0 (Windows NT 10.0; Win64; x64) AppleWebKit/537.36 (KHTML, like Gecko) Chrome/101.0.4951.67 Safari/537.36" etag="VQCENRC6KpwiEGK2wOs7" version="18.0.8" type="github">
  <diagram id="nFc0npHTAtao-3yocKrN" name="Page-1">
    <mxGraphModel dx="1256" dy="614" grid="1" gridSize="10" guides="1" tooltips="1" connect="1" arrows="1" fold="1" page="1" pageScale="1" pageWidth="827" pageHeight="1169" math="0" shadow="0">
      <root>
        <mxCell id="0" />
        <mxCell id="1" parent="0" />
        <mxCell id="k4tD3nb0E1NjtqeVVozX-3" value="" style="rounded=0;whiteSpace=wrap;html=1;" parent="1" vertex="1">
          <mxGeometry x="20" y="140" width="789" height="1930" as="geometry" />
        </mxCell>
        <mxCell id="jSddGvB9Upjfdm6qV6eb-1" value="" style="rounded=0;whiteSpace=wrap;html=1;" parent="1" vertex="1">
          <mxGeometry x="20" y="30" width="790" height="50" as="geometry" />
        </mxCell>
        <mxCell id="jSddGvB9Upjfdm6qV6eb-2" value="" style="rounded=0;whiteSpace=wrap;html=1;" parent="1" vertex="1">
          <mxGeometry x="20" y="80" width="790" height="60" as="geometry" />
        </mxCell>
        <mxCell id="jSddGvB9Upjfdm6qV6eb-3" value="Gallery" style="rounded=0;whiteSpace=wrap;html=1;" parent="1" vertex="1">
          <mxGeometry x="660" y="90" width="50" height="40" as="geometry" />
        </mxCell>
        <mxCell id="jSddGvB9Upjfdm6qV6eb-4" value="News &amp; Events" style="rounded=0;whiteSpace=wrap;html=1;" parent="1" vertex="1">
          <mxGeometry x="480" y="90" width="80" height="40" as="geometry" />
        </mxCell>
        <mxCell id="jSddGvB9Upjfdm6qV6eb-5" value="RAJI GARDEN" style="rounded=0;whiteSpace=wrap;html=1;" parent="1" vertex="1">
          <mxGeometry x="40" y="35" width="390" height="40" as="geometry" />
        </mxCell>
        <mxCell id="jSddGvB9Upjfdm6qV6eb-6" value="About Us" style="rounded=0;whiteSpace=wrap;html=1;" parent="1" vertex="1">
          <mxGeometry x="240" y="90" width="60" height="40" as="geometry" />
        </mxCell>
        <mxCell id="jSddGvB9Upjfdm6qV6eb-7" value="Academics" style="rounded=0;whiteSpace=wrap;html=1;" parent="1" vertex="1">
          <mxGeometry x="320" y="90" width="70" height="40" as="geometry" />
        </mxCell>
        <mxCell id="jSddGvB9Upjfdm6qV6eb-8" value="&lt;span style=&quot;&quot;&gt;Student&#39;s Life&lt;/span&gt;" style="rounded=0;whiteSpace=wrap;html=1;" parent="1" vertex="1">
          <mxGeometry x="400" y="90" width="70" height="40" as="geometry" />
        </mxCell>
        <mxCell id="jSddGvB9Upjfdm6qV6eb-10" value="Downloads" style="rounded=0;whiteSpace=wrap;html=1;" parent="1" vertex="1">
          <mxGeometry x="650" y="35" width="80" height="40" as="geometry" />
        </mxCell>
        <mxCell id="jSddGvB9Upjfdm6qV6eb-11" value="Contact" style="rounded=0;whiteSpace=wrap;html=1;" parent="1" vertex="1">
          <mxGeometry x="560" y="35" width="80" height="40" as="geometry" />
        </mxCell>
        <mxCell id="jSddGvB9Upjfdm6qV6eb-12" value="&lt;div&gt;clubs &amp;amp; departments&lt;/div&gt;" style="rounded=0;whiteSpace=wrap;html=1;" parent="1" vertex="1">
          <mxGeometry x="570" y="90" width="80" height="40" as="geometry" />
        </mxCell>
        <mxCell id="jSddGvB9Upjfdm6qV6eb-13" value="home" style="rounded=0;whiteSpace=wrap;html=1;" parent="1" vertex="1">
          <mxGeometry x="40" y="90" width="50" height="40" as="geometry" />
        </mxCell>
        <mxCell id="jSddGvB9Upjfdm6qV6eb-16" value="materials" style="rounded=0;whiteSpace=wrap;html=1;" parent="1" vertex="1">
          <mxGeometry x="720" y="90" width="60" height="40" as="geometry" />
        </mxCell>
        <mxCell id="5KwlApKkoeZXWSo-Qxgk-1" value="" style="whiteSpace=wrap;html=1;aspect=fixed;" parent="1" vertex="1">
          <mxGeometry x="30" y="248" width="24" height="24" as="geometry" />
        </mxCell>
        <mxCell id="5KwlApKkoeZXWSo-Qxgk-2" value="" style="rounded=0;whiteSpace=wrap;html=1;" parent="1" vertex="1">
          <mxGeometry x="60" y="170" width="700" height="180" as="geometry" />
        </mxCell>
        <mxCell id="5KwlApKkoeZXWSo-Qxgk-3" value="" style="whiteSpace=wrap;html=1;aspect=fixed;" parent="1" vertex="1">
          <mxGeometry x="770" y="248" width="24" height="24" as="geometry" />
        </mxCell>
        <mxCell id="5KwlApKkoeZXWSo-Qxgk-8" value="" style="ellipse;whiteSpace=wrap;html=1;aspect=fixed;" parent="1" vertex="1">
          <mxGeometry x="750" y="40" width="30" height="30" as="geometry" />
        </mxCell>
        <mxCell id="5KwlApKkoeZXWSo-Qxgk-10" value="" style="rounded=1;whiteSpace=wrap;html=1;" parent="1" vertex="1">
          <mxGeometry x="80" y="480" width="690" height="150" as="geometry" />
        </mxCell>
        <mxCell id="5KwlApKkoeZXWSo-Qxgk-15" value="" style="rounded=0;whiteSpace=wrap;html=1;" parent="1" vertex="1">
          <mxGeometry x="19" y="2030" width="790" height="40" as="geometry" />
        </mxCell>
        <mxCell id="5KwlApKkoeZXWSo-Qxgk-23" value="" style="ellipse;whiteSpace=wrap;html=1;aspect=fixed;" parent="1" vertex="1">
          <mxGeometry x="130" y="1970" width="30" height="30" as="geometry" />
        </mxCell>
        <mxCell id="6J4RI8AgOYJiSDraln3s-2" value="" style="rounded=1;whiteSpace=wrap;html=1;" parent="1" vertex="1">
          <mxGeometry x="60" y="890" width="690" height="300" as="geometry" />
        </mxCell>
        <mxCell id="6J4RI8AgOYJiSDraln3s-7" value="&lt;h1&gt;Heading&lt;/h1&gt;&lt;p&gt;Lorem ipsum dolor sit amet, consectetur adipisicing elit, sed do eiusmod tempor incididunt ut labore et dolore magna aliqua.&lt;/p&gt;" style="text;html=1;strokeColor=none;fillColor=none;spacing=5;spacingTop=-20;whiteSpace=wrap;overflow=hidden;rounded=0;" parent="1" vertex="1">
          <mxGeometry x="134" y="495" width="560" height="120" as="geometry" />
        </mxCell>
        <mxCell id="6J4RI8AgOYJiSDraln3s-10" value="" style="rounded=1;whiteSpace=wrap;html=1;" parent="1" vertex="1">
          <mxGeometry x="570" y="670" width="190" height="180" as="geometry" />
        </mxCell>
        <mxCell id="6J4RI8AgOYJiSDraln3s-8" value="&lt;h1&gt;Heading&lt;/h1&gt;&lt;p&gt;Lorem ipsum dolor sit amet, consectetur adipisicing elit, sed do eiusmod tempor incididunt ut labore et dolore magna aliqua.&lt;/p&gt;" style="text;html=1;strokeColor=none;fillColor=none;spacing=5;spacingTop=-20;whiteSpace=wrap;overflow=hidden;rounded=0;" parent="1" vertex="1">
          <mxGeometry x="582.5" y="700" width="165" height="120" as="geometry" />
        </mxCell>
        <mxCell id="6J4RI8AgOYJiSDraln3s-21" value="" style="rounded=1;whiteSpace=wrap;html=1;" parent="1" vertex="1">
          <mxGeometry x="80" y="670" width="190" height="180" as="geometry" />
        </mxCell>
        <mxCell id="6J4RI8AgOYJiSDraln3s-22" value="&lt;h1&gt;Heading&lt;/h1&gt;&lt;p&gt;Lorem ipsum dolor sit amet, consectetur adipisicing elit, sed do eiusmod tempor incididunt ut labore et dolore magna aliqua.&lt;/p&gt;" style="text;html=1;strokeColor=none;fillColor=none;spacing=5;spacingTop=-20;whiteSpace=wrap;overflow=hidden;rounded=0;" parent="1" vertex="1">
          <mxGeometry x="92.5" y="700" width="165" height="120" as="geometry" />
        </mxCell>
        <mxCell id="6J4RI8AgOYJiSDraln3s-25" value="" style="rounded=1;whiteSpace=wrap;html=1;" parent="1" vertex="1">
          <mxGeometry x="330" y="670" width="190" height="180" as="geometry" />
        </mxCell>
        <mxCell id="6J4RI8AgOYJiSDraln3s-26" value="&lt;h1&gt;Heading&lt;/h1&gt;&lt;p&gt;Lorem ipsum dolor sit amet, consectetur adipisicing elit, sed do eiusmod tempor incididunt ut labore et dolore magna aliqua.&lt;/p&gt;" style="text;html=1;strokeColor=none;fillColor=none;spacing=5;spacingTop=-20;whiteSpace=wrap;overflow=hidden;rounded=0;" parent="1" vertex="1">
          <mxGeometry x="342.5" y="700" width="165" height="120" as="geometry" />
        </mxCell>
        <mxCell id="6J4RI8AgOYJiSDraln3s-29" value="" style="rounded=1;whiteSpace=wrap;html=1;" parent="1" vertex="1">
          <mxGeometry x="70" y="1250" width="680" height="670" as="geometry" />
        </mxCell>
        <mxCell id="6J4RI8AgOYJiSDraln3s-30" value="" style="ellipse;whiteSpace=wrap;html=1;aspect=fixed;" parent="1" vertex="1">
          <mxGeometry x="220" y="1970" width="30" height="30" as="geometry" />
        </mxCell>
        <mxCell id="6J4RI8AgOYJiSDraln3s-31" value="" style="ellipse;whiteSpace=wrap;html=1;aspect=fixed;" parent="1" vertex="1">
          <mxGeometry x="630" y="1970" width="30" height="30" as="geometry" />
        </mxCell>
        <mxCell id="6J4RI8AgOYJiSDraln3s-32" value="" style="ellipse;whiteSpace=wrap;html=1;aspect=fixed;" parent="1" vertex="1">
          <mxGeometry x="550" y="1970" width="30" height="30" as="geometry" />
        </mxCell>
        <mxCell id="6J4RI8AgOYJiSDraln3s-33" value="" style="ellipse;whiteSpace=wrap;html=1;aspect=fixed;" parent="1" vertex="1">
          <mxGeometry x="470" y="1970" width="30" height="30" as="geometry" />
        </mxCell>
        <mxCell id="6J4RI8AgOYJiSDraln3s-34" value="" style="ellipse;whiteSpace=wrap;html=1;aspect=fixed;" parent="1" vertex="1">
          <mxGeometry x="384" y="1970" width="30" height="30" as="geometry" />
        </mxCell>
        <mxCell id="6J4RI8AgOYJiSDraln3s-35" value="" style="ellipse;whiteSpace=wrap;html=1;aspect=fixed;" parent="1" vertex="1">
          <mxGeometry x="312.5" y="1970" width="30" height="30" as="geometry" />
        </mxCell>
      </root>
    </mxGraphModel>
  </diagram>
</mxfile>
